<?xml version="1.0" encoding="UTF-8"?>
<svg version="1.1" viewBox="0 0 24 24" xmlns="http://www.w3.org/2000/svg">
<g transform="translate(0 -1028.4)">
<path d="m2 1033.4c-1.1046 0-2 0.9-2 2v14c0 1.1 0.89543 2 2 2h20c1.105 0 2-0.9 2-2v-14c0-1.1-0.895-2-2-2h-20z" fill="#2980b9"/>
<path d="m3 1029.4c-1.1046 0-2 0.9-2 2v14c0 1.1 0.8954 2 2 2h18c1.105 0 2-0.9 2-2v-12c0-1.1-0.895-2-2-2h-8l-3-2h-7z" fill="#2980b9"/>
<path d="m23 1042.4v-8c0-1.1-0.895-2-2-2h-18c-1.1046 0-2 0.9-2 2v8h22z" fill="#bdc3c7"/>
<path d="m2 1033.4c-1.1046 0-2 0.9-2 2v13c0 1.1 0.89543 2 2 2h20c1.105 0 2-0.9 2-2v-13c0-1.1-0.895-2-2-2h-20z" fill="#3498db"/>
</g>
</svg>
